<svg xmlns="http://www.w3.org/2000/svg" width="800" height="800" viewBox="0 0 800 800"><rect width="100%" height="100%" fill="#324191"/><path fill="#FFFFFF" d="M273.36 436.285q2.1 0 3.71 1.62l10.07 10.92q-8.36 10.36-20.57 15.87t-29.3 5.51q-15.3 0-27.51-5.23-12.21-5.22-20.85-14.53-8.64-9.31-13.25-22.23-4.61-12.92-4.61-28.22 0-15.48 4.94-28.35 4.94-12.88 13.92-22.18 8.98-9.31 21.42-14.49 12.44-5.18 27.55-5.18 15.01 0 26.65 4.94 11.64 4.94 19.8 12.92l-8.54 11.87q-.76 1.14-1.95 2-1.19.85-3.28.85-1.42 0-2.95-.8-1.51-.81-3.32-2-1.8-1.19-4.18-2.61-2.37-1.42-5.51-2.61-3.13-1.19-7.27-2-4.13-.81-9.54-.81-9.22 0-16.87 3.28t-13.15 9.5q-5.51 6.22-8.55 15.2-3.04 8.98-3.04 20.47 0 11.6 3.27 20.62 3.28 9.02 8.88 15.2 5.61 6.17 13.21 9.45 7.6 3.28 16.34 3.28 5.23 0 9.45-.57 4.23-.57 7.79-1.81 3.56-1.23 6.75-3.18 3.18-1.94 6.31-4.8.96-.85 2-1.37 1.05-.53 2.18-.53Zm110.87-92.05-6.36 12.06q-1.14 2-2.43 2.9-1.28.9-3.18.9-1.99 0-4.32-1.47t-5.56-3.28q-3.23-1.8-7.55-3.27-4.32-1.48-10.21-1.48-5.32 0-9.32 1.29-3.98 1.28-6.69 3.56-2.71 2.28-4.04 5.46-1.33 3.19-1.33 6.98 0 4.85 2.71 8.08 2.71 3.23 7.17 5.51t10.17 4.08q5.7 1.81 11.68 3.85 5.99 2.05 11.69 4.75 5.7 2.71 10.16 6.84 4.47 4.14 7.17 10.12 2.71 5.98 2.71 14.53 0 9.31-3.18 17.44-3.18 8.12-9.31 14.15-6.13 6.03-14.96 9.5-8.84 3.47-20.24 3.47-6.55 0-12.92-1.28-6.36-1.28-12.21-3.66-5.84-2.37-10.97-5.7-5.13-3.33-9.12-7.41l7.51-12.26q.95-1.33 2.47-2.23 1.52-.9 3.23-.9 2.37 0 5.13 1.95 2.75 1.95 6.55 4.32 3.8 2.38 8.88 4.32 5.09 1.95 12.21 1.95 10.93 0 16.91-5.18 5.99-5.17 5.99-14.86 0-5.42-2.71-8.84t-7.17-5.75q-4.47-2.33-10.17-3.94-5.7-1.61-11.59-3.52-5.89-1.9-11.59-4.56-5.7-2.66-10.16-6.93-4.47-4.27-7.18-10.69-2.7-6.41-2.7-15.82 0-7.5 2.99-14.62 2.99-7.13 8.69-12.64 5.7-5.51 14.06-8.83 8.36-3.33 19.19-3.33 12.16 0 22.42 3.8 10.26 3.8 17.48 10.64Zm104.22 0-6.37 12.06q-1.14 2-2.42 2.9-1.28.9-3.18.9-2 0-4.33-1.47-2.32-1.47-5.55-3.28-3.23-1.8-7.56-3.27-4.32-1.48-10.21-1.48-5.32 0-9.31 1.29-3.99 1.28-6.7 3.56-2.7 2.28-4.03 5.46-1.33 3.19-1.33 6.98 0 4.85 2.7 8.08 2.71 3.23 7.18 5.51 4.46 2.28 10.16 4.08 5.7 1.81 11.69 3.85 5.98 2.05 11.68 4.75 5.7 2.71 10.17 6.84 4.46 4.14 7.17 10.12 2.71 5.98 2.71 14.53 0 9.31-3.19 17.44-3.18 8.12-9.31 14.15-6.12 6.03-14.96 9.5-8.83 3.47-20.23 3.47-6.56 0-12.92-1.28-6.37-1.28-12.21-3.66-5.84-2.37-10.97-5.7-5.13-3.33-9.12-7.41l7.5-12.26q.95-1.33 2.47-2.23 1.52-.9 3.23-.9 2.38 0 5.13 1.95 2.76 1.95 6.56 4.32 3.8 2.38 8.88 4.32 5.08 1.95 12.21 1.95 10.92 0 16.91-5.18 5.98-5.17 5.98-14.86 0-5.42-2.71-8.84-2.7-3.42-7.17-5.75-4.46-2.33-10.16-3.94-5.7-1.61-11.59-3.52-5.89-1.9-11.59-4.56-5.7-2.66-10.17-6.93-4.46-4.27-7.17-10.69-2.71-6.41-2.71-15.82 0-7.5 2.99-14.62 3-7.13 8.7-12.64 5.7-5.51 14.06-8.83 8.36-3.33 19.19-3.33 12.16 0 22.42 3.8 10.26 3.8 17.48 10.64Zm114.85-12.92h25.65v137.37H603.3v-60.04h-64.5v60.04h-25.65v-137.37h25.65v59.09h64.5v-59.09Z"/></svg>